# xmcd
#
# Track frame offsets:
#	150
#	10551
#	34588
#
# Disc length: 1085 seconds
#
# Revision: 0
# Processed by: cddbd v1.5.1PL0 Copyright (c) Steve Scherf et al.
# Submitted via: CDDB.pm 1.12
#
DISCID=12043b03
DTITLE=The Features - There's a million ways to sing the blues (Single)
DYEAR=2004
DGENRE=Rock
TTITLE0=There's a million ways to sing the blues
TTITLE1=See you through
TTITLE2=There's a million ways to sing the blues (Video)
EXTD=
EXTT0=
EXTT1=
EXTT2=
PLAYORDER=
